<?xml version="1.0" encoding="UTF-8"?>
<svg width="307px" height="174px" viewBox="0 0 307 174" version="1.1" xmlns="http://www.w3.org/2000/svg" xmlns:xlink="http://www.w3.org/1999/xlink">
    <!-- Generator: Sketch 63.1 (92452) - https://sketch.com -->
    <title>Group 2</title>
    <desc>Created with Sketch.</desc>
    <defs>
        <linearGradient x1="0%" y1="50%" x2="100%" y2="50%" id="linearGradient-1">
            <stop stop-color="#4FACFE" offset="0%"></stop>
            <stop stop-color="#00F2FE" offset="100%"></stop>
        </linearGradient>
    </defs>
    <g id="App" stroke="none" stroke-width="1" fill="none" fill-rule="evenodd">
        <g id="Logo" transform="translate(-2.000000, -3.000000)">
            <g id="Group-2">
                <text id="GOBONSAI" font-family="Montserrat-Bold, Montserrat" font-size="64" font-weight="bold" line-spacing="53" fill="#232B2B">
                    <tspan x="0" y="62">GOBO</tspan>
                    <tspan x="0" y="115">NSAI</tspan>
                </text>
                <g id="bonsai" transform="translate(176.000000, 40.000000)" fill-rule="nonzero">
                    <g id="Group">
                        <path d="M55.6059688,62.2983051 C55.6059688,62.2983051 57.6089073,101.007458 50.2566575,101.678644 C42.9044077,102.349831 41.9029385,96.3335593 40.5717172,97.0047458 C38.2390266,98.1762712 40.815978,105.901017 44.2966942,109.391186 C47.9850321,113.07661 47.2522498,122.033898 43.2341598,122.705085 C39.2160698,123.376271 21.5071625,129.124068 22.1910927,132.052881 C22.8628099,134.884068 42.0861341,133.99322 45.5179982,133.99322 C49.2063361,133.99322 54.9831038,132.931525 57.828742,132.760678 C60.6988062,132.589831 70.9577594,131.381695 83.6471074,134.225085 C96.3364555,137.056271 109.282277,138.105763 104.604683,132.760678 C104.604683,132.760678 98.3393939,132.382373 92.0008264,130.381017 C85.6500459,128.379661 85.992011,123.376271 88.3247016,117.701695 C90.6573921,112.027119 86.9934803,106.352542 80.6426997,106.352542 C74.2919192,106.352542 71.2875115,100.677966 72.2889807,96.3457627 C73.29045,92.0013559 73.9621671,92.6725424 69.284573,83.6664407 C64.6069789,74.660339 69.284573,65.6420339 69.284573,65.6420339 L55.6059688,62.2983051 Z" id="Shape" fill="#B38455"></path>
                        <path d="M95.579247,25.1511864 C92.0374656,10.7145763 78.9939394,0 63.4589532,0 C48.1926538,0 35.3445363,10.3484746 31.534068,24.3945763 C13.9839302,25.2 0,39.6610169 0,57.4047458 C0,75.6488136 14.8022039,90.439322 33.0606979,90.439322 C41.1823691,90.439322 48.6201102,87.5105085 54.3724518,82.6535593 C62.6895317,87.5105085 73.4247934,90.439322 85.1615243,90.439322 C111.54169,90.439322 132.926722,75.6488136 132.926722,57.4047458 C132.926722,41.6257627 116.952066,28.4338983 95.579247,25.1511864 Z" id="Shape" fill="#84DD90"></path>
                        <path d="M62.9582185,0 C47.9117539,0.231864407 35.2956841,10.4949153 31.534068,24.3945763 C13.9839302,25.2 0,39.6610169 0,57.4047458 C0,75.6488136 14.8022039,90.439322 33.0606979,90.439322 C41.1823691,90.439322 48.6201102,87.5105085 54.3724518,82.6535593 C56.9982553,84.1911864 59.8805326,85.5335593 62.9460055,86.6562712 L62.9460055,0 L62.9582185,0 Z" id="Shape" fill-opacity="0.277428668" fill="#D4FC79"></path>
                    </g>
                    <circle id="Oval" fill="#FFFFFF" cx="63.5" cy="48.5" r="32.5"></circle>
                    <path d="M81.7572031,24.6456555 C79.5984913,27.6069162 78.7375022,32.4460495 76.042232,33.7581528 C72.0741953,35.6721383 70.102655,33.7581528 70.102655,28.0282337 C70.102655,26.0901729 69.6409652,22.8400088 69.0420163,19.3852046 C67.557122,19.1564894 66.0472716,19 64.4999869,19 C48.7526211,19 36,31.3145108 36,46.4939812 C36,47.0838258 36.0499124,47.6736704 36.0873467,48.263515 C36.7985986,48.4561173 37.572241,48.7089079 38.3957957,49.0459619 C52.258968,54.7758809 56.2020485,67.7163493 53.2447381,71.760998 C56.7011726,73.1934778 60.5069939,74 64.4999869,74 C80.2473526,74 93,61.6854892 93,46.5060188 C93.0124518,37.5740862 88.5827253,29.6773911 81.7572031,24.6456555 Z" id="Shape" fill="url(#linearGradient-1)"></path>
                    <circle id="Oval" fill="#232B2B" cx="63.5" cy="49.5" r="11.5"></circle>
                    <ellipse id="Oval" fill-opacity="0.242697011" fill="#725F2F" cx="64" cy="113" rx="7" ry="12"></ellipse>
                </g>
            </g>
        </g>
    </g>
</svg>