<?xml version="1.0" encoding="UTF-8"?>
<svg width="99px" height="102px" viewBox="0 0 99 102" version="1.1" xmlns="http://www.w3.org/2000/svg" xmlns:xlink="http://www.w3.org/1999/xlink">
    <!-- Generator: Sketch 63.1 (92452) - https://sketch.com -->
    <title>bonsai</title>
    <desc>Created with Sketch.</desc>
    <defs>
        <linearGradient x1="0%" y1="50%" x2="100%" y2="50%" id="linearGradient-1">
            <stop stop-color="#4FACFE" offset="0%"></stop>
            <stop stop-color="#00F2FE" offset="100%"></stop>
        </linearGradient>
    </defs>
    <g id="App" stroke="none" stroke-width="1" fill="none" fill-rule="evenodd">
        <g id="Los-gehts" transform="translate(-130.000000, -97.000000)" fill-rule="nonzero">
            <g id="bonsai" transform="translate(130.000000, 97.000000)">
                <g id="Group">
                    <path d="M41.3909091,46.2911017 C41.3909091,46.2911017 42.8818182,75.0541525 37.4090909,75.5528814 C31.9363636,76.0516102 31.1909091,71.5811864 30.2,72.0799153 C28.4636364,72.9504237 30.3818182,78.690339 32.9727273,81.2837288 C35.7181818,84.0222034 35.1727273,90.6779661 32.1818182,91.1766949 C29.1909091,91.6754237 16.0090909,95.9463559 16.5181818,98.1226271 C17.0181818,100.226356 31.3272727,99.5644068 33.8818182,99.5644068 C36.6272727,99.5644068 40.9272727,98.7755085 43.0454545,98.6485593 C45.1818182,98.5216102 52.8181818,97.6238983 62.2636364,99.7366949 C71.7090909,101.840424 81.3454545,102.620254 77.8636364,98.6485593 C77.8636364,98.6485593 73.2,98.3674576 68.4818182,96.880339 C63.7545455,95.3932203 64.0090909,91.6754237 65.7454545,87.4588983 C67.4818182,83.2423729 64.7545455,79.0258475 60.0272727,79.0258475 C55.3,79.0258475 53.0636364,74.809322 53.8090909,71.5902542 C54.5545455,68.3621186 55.0545455,68.8608475 51.5727273,62.1688136 C48.0909091,55.4767797 51.5727273,48.775678 51.5727273,48.775678 L41.3909091,46.2911017 Z" id="Shape" fill="#B38455"></path>
                    <path d="M71.1454545,18.6887288 C68.5090909,7.96152542 58.8,0 47.2363636,0 C35.8727273,0 26.3090909,7.68949153 23.4727273,18.1265254 C10.4090909,18.725 0,29.470339 0,42.6549153 C0,56.2112712 11.0181818,67.2014407 24.6090909,67.2014407 C30.6545455,67.2014407 36.1909091,65.0251695 40.4727273,61.4161864 C46.6636364,65.0251695 54.6545455,67.2014407 63.3909091,67.2014407 C83.0272727,67.2014407 98.9454545,56.2112712 98.9454545,42.6549153 C98.9454545,30.9302542 87.0545455,21.1279661 71.1454545,18.6887288 Z" id="Shape" fill="#84DD90"></path>
                    <path d="M46.8636364,0 C35.6636364,0.172288136 26.2727273,7.79830508 23.4727273,18.1265254 C10.4090909,18.725 0,29.470339 0,42.6549153 C0,56.2112712 11.0181818,67.2014407 24.6090909,67.2014407 C30.6545455,67.2014407 36.1909091,65.0251695 40.4727273,61.4161864 C42.4272727,62.5587288 44.5727273,63.5561864 46.8545455,64.3904237 L46.8545455,0 L46.8636364,0 Z" id="Shape" fill-opacity="0.277428668" fill="#D4FC79"></path>
                </g>
                <circle id="Oval" fill="#FFFFFF" cx="47.5" cy="35.5" r="24.5"></circle>
                <path d="M60.7158338,18.2085796 C59.1252041,20.4160648 58.4907911,24.0234187 56.5048025,25.0015321 C53.580986,26.4283213 52.1282721,25.0015321 52.1282721,20.7301379 C52.1282721,19.2854016 51.7880796,16.862552 51.3467488,14.2871525 C50.2526162,14.1166557 49.1400949,14 48,14 C36.3966682,14 27,23.1799081 27,34.4955132 C27,34.9352156 27.0367776,35.3749179 27.0643607,35.8146203 C27.5884411,35.9581965 28.1584933,36.1466404 28.7653232,36.3978989 C38.9802922,40.6692931 41.8857199,50.315824 39.7066491,53.3309258 C42.2534956,54.3987743 45.057785,55 48,55 C59.6033125,55 69,45.8200919 69,34.5044868 C69.009175,27.846137 65.745166,21.9595097 60.7158338,18.2085796 Z" id="Shape" fill="url(#linearGradient-1)"></path>
                <circle id="Oval" fill="#232B2B" cx="47.5" cy="36.5" r="8.5"></circle>
                <ellipse id="Oval" fill-opacity="0.242697011" fill="#725F2F" cx="47.5" cy="84" rx="5.5" ry="9"></ellipse>
            </g>
        </g>
    </g>
</svg>